<svg xmlns="http://www.w3.org/2000/svg" width="620" height="440" viewBox="0 0 620 440" role="img" aria-labelledby="title desc">
<title id="title">从结构设计到酸响应递送的概念示意</title><desc id="desc">蛋白亚基与 siRNA 共组装形成颗粒，酸性环境下结构重排。</desc>
<defs><pattern id="grid" width="28" height="28" patternUnits="userSpaceOnUse"><path d="M28 0H0V28" fill="none" stroke="#d8dee8" stroke-width=".7"/></pattern><marker id="arrow" viewBox="0 0 10 10" refX="9" refY="5" markerWidth="6" markerHeight="6" orient="auto"><path d="M0 0 10 5 0 10" fill="none" stroke="#015185" stroke-width="1.5"/></marker><g id="subunit"><rect x="-8" y="-28" width="11" height="54" rx="5.5" fill="#10206b"/><rect x="5" y="-22" width="10" height="45" rx="5" fill="#b49360"/><path d="M-3-27Q4-41 10-20" fill="none" stroke="#015185" stroke-width="3"/></g></defs>
<rect width="620" height="440" rx="20" fill="#fff"/><rect x="20" y="20" width="580" height="400" rx="12" fill="url(#grid)"/>
<g font-family="Microsoft YaHei, sans-serif" fill="#52617a" font-size="13"><text x="38" y="49" letter-spacing="2">DESIGNED TO RESPOND</text><text x="483" y="49">机制示意</text></g>
<circle cx="176" cy="202" r="100" fill="#f0f4f8" stroke="#d8dee8"/><circle cx="176" cy="202" r="66" fill="#fffaf3" stroke="#b49360" stroke-width="2" stroke-dasharray="3 5"/>
<g transform="translate(176 202)"><use href="#subunit" transform="translate(0 -84) rotate(90)"/><use href="#subunit" transform="rotate(45) translate(0 -84) rotate(90)"/><use href="#subunit" transform="rotate(90) translate(0 -84) rotate(90)"/><use href="#subunit" transform="rotate(135) translate(0 -84) rotate(90)"/><use href="#subunit" transform="rotate(180) translate(0 -84) rotate(90)"/><use href="#subunit" transform="rotate(225) translate(0 -84) rotate(90)"/><use href="#subunit" transform="rotate(270) translate(0 -84) rotate(90)"/><use href="#subunit" transform="rotate(315) translate(0 -84) rotate(90)"/></g>
<g fill="none" stroke-width="4" stroke-linecap="round"><path d="M147 167C219 179 130 207 204 231" stroke="#015185"/><path d="M155 162C227 174 138 202 212 226" stroke="#b49360"/></g>
<path d="M290 202H362" fill="none" stroke="#015185" stroke-width="2" marker-end="url(#arrow)"/><text x="301" y="180" font-family="Microsoft YaHei, sans-serif" fill="#015185" font-size="16">酸化</text>
<g transform="translate(471 202)"><circle r="77" fill="#fcedd9" fill-opacity="0" stroke="#b49360" stroke-dasharray="4 7"/><use href="#subunit" transform="translate(-42 -84) rotate(65)"/><use href="#subunit" transform="translate(56 -58) rotate(120)"/><use href="#subunit" transform="translate(89 20) rotate(-10)"/><use href="#subunit" transform="translate(40 92) rotate(68)"/><use href="#subunit" transform="translate(-58 59) rotate(140)"/><path d="M-14-35C44-13-56 16 12 46" fill="none" stroke="#015185" stroke-width="4"/><path d="M-5-39C53-17-47 12 21 42" fill="none" stroke="#b49360" stroke-width="4"/></g>
<g font-family="Microsoft YaHei, sans-serif" text-anchor="middle"><text x="176" y="350" fill="#10206b" font-size="21" font-weight="600">蛋白 / siRNA 共组装</text><text x="471" y="350" fill="#10206b" font-size="21" font-weight="600">酸响应结构重排</text><text x="310" y="394" fill="#52617a" font-size="14">His–Asn 网络 · 核酸结合环区 · 膜相互作用片段</text></g>
</svg>
